<mxfile host="app.diagrams.net" modified="2022-05-17T16:59:26.716Z" agent="5.0 (Windows NT 10.0; Win64; x64) AppleWebKit/537.36 (KHTML, like Gecko) Chrome/101.0.4951.54 Safari/537.36" etag="z8VXt3Ko1A2EHGw3-8mf" version="18.0.6" type="github">
  <diagram id="kgpKYQtTHZ0yAKxKKP6v" name="Page-1">
    <mxGraphModel dx="785" dy="512" grid="1" gridSize="10" guides="1" tooltips="1" connect="1" arrows="1" fold="1" page="1" pageScale="1" pageWidth="850" pageHeight="1100" math="0" shadow="0">
      <root>
        <mxCell id="0" />
        <mxCell id="1" parent="0" />
        <mxCell id="3nuBFxr9cyL0pnOWT2aG-1" value="Usuario" style="shape=umlLifeline;perimeter=lifelinePerimeter;container=1;collapsible=0;recursiveResize=0;rounded=0;shadow=0;strokeWidth=1;" parent="1" vertex="1">
          <mxGeometry x="130" y="60" width="100" height="440" as="geometry" />
        </mxCell>
        <mxCell id="3nuBFxr9cyL0pnOWT2aG-2" value="" style="points=[];perimeter=orthogonalPerimeter;rounded=0;shadow=0;strokeWidth=1;" parent="3nuBFxr9cyL0pnOWT2aG-1" vertex="1">
          <mxGeometry x="45" y="70" width="10" height="310" as="geometry" />
        </mxCell>
        <mxCell id="3nuBFxr9cyL0pnOWT2aG-3" value="Registro de usuario" style="verticalAlign=bottom;startArrow=oval;endArrow=block;startSize=8;shadow=0;strokeWidth=1;" parent="3nuBFxr9cyL0pnOWT2aG-1" target="3nuBFxr9cyL0pnOWT2aG-2" edge="1">
          <mxGeometry relative="1" as="geometry">
            <mxPoint x="-80" y="70" as="sourcePoint" />
          </mxGeometry>
        </mxCell>
        <mxCell id="3nuBFxr9cyL0pnOWT2aG-4" value="" style="points=[];perimeter=orthogonalPerimeter;rounded=0;shadow=0;strokeWidth=1;" parent="3nuBFxr9cyL0pnOWT2aG-1" vertex="1">
          <mxGeometry x="50" y="120" width="10" height="50" as="geometry" />
        </mxCell>
        <mxCell id="3nuBFxr9cyL0pnOWT2aG-5" value="Sitio web restaurant-reservation" style="shape=umlLifeline;perimeter=lifelinePerimeter;container=1;collapsible=0;recursiveResize=0;rounded=0;shadow=0;strokeWidth=1;" parent="1" vertex="1">
          <mxGeometry x="370" y="60" width="180" height="450" as="geometry" />
        </mxCell>
        <mxCell id="3nuBFxr9cyL0pnOWT2aG-6" value="" style="points=[];perimeter=orthogonalPerimeter;rounded=0;shadow=0;strokeWidth=1;" parent="3nuBFxr9cyL0pnOWT2aG-5" vertex="1">
          <mxGeometry x="85" y="80" width="10" height="230" as="geometry" />
        </mxCell>
        <mxCell id="3nuBFxr9cyL0pnOWT2aG-7" value="Usuario registrado Satisfactoriamente" style="verticalAlign=bottom;endArrow=open;dashed=1;endSize=8;exitX=-0.167;exitY=0.908;shadow=0;strokeWidth=1;exitDx=0;exitDy=0;exitPerimeter=0;" parent="1" source="3nuBFxr9cyL0pnOWT2aG-6" target="3nuBFxr9cyL0pnOWT2aG-2" edge="1">
          <mxGeometry relative="1" as="geometry">
            <mxPoint x="285" y="216" as="targetPoint" />
          </mxGeometry>
        </mxCell>
        <mxCell id="3nuBFxr9cyL0pnOWT2aG-8" value="Ingresar  interface de registrar usuario" style="verticalAlign=bottom;endArrow=block;shadow=0;strokeWidth=1;fontStyle=2" parent="1" target="3nuBFxr9cyL0pnOWT2aG-5" edge="1">
          <mxGeometry relative="1" as="geometry">
            <mxPoint x="186" y="140.0000000000001" as="sourcePoint" />
            <mxPoint x="356" y="140.0000000000001" as="targetPoint" />
          </mxGeometry>
        </mxCell>
        <mxCell id="3nuBFxr9cyL0pnOWT2aG-9" value="Pedir datos de registro " style="verticalAlign=bottom;endArrow=open;entryX=1;entryY=0;shadow=0;strokeWidth=1;dashed=1;endFill=0;" parent="1" source="3nuBFxr9cyL0pnOWT2aG-6" target="3nuBFxr9cyL0pnOWT2aG-4" edge="1">
          <mxGeometry relative="1" as="geometry">
            <mxPoint x="250" y="180" as="sourcePoint" />
          </mxGeometry>
        </mxCell>
        <mxCell id="3nuBFxr9cyL0pnOWT2aG-10" value="Diligenciar formato de regitro " style="verticalAlign=bottom;endArrow=block;exitX=1;exitY=0.95;shadow=0;strokeWidth=1;endFill=1;" parent="1" source="3nuBFxr9cyL0pnOWT2aG-4" target="3nuBFxr9cyL0pnOWT2aG-6" edge="1">
          <mxGeometry relative="1" as="geometry">
            <mxPoint x="250" y="237" as="targetPoint" />
          </mxGeometry>
        </mxCell>
        <mxCell id="BqO1Ia-eZH7qR0FFFj6U-1" value="Verficar datos y tipos de datos" style="verticalAlign=bottom;endArrow=block;shadow=0;strokeWidth=1;endFill=1;entryX=0.667;entryY=-0.04;entryDx=0;entryDy=0;entryPerimeter=0;exitX=1.25;exitY=0.506;exitDx=0;exitDy=0;exitPerimeter=0;" edge="1" parent="1" source="3nuBFxr9cyL0pnOWT2aG-6" target="BqO1Ia-eZH7qR0FFFj6U-4">
          <mxGeometry relative="1" as="geometry">
            <mxPoint x="690" y="169" as="targetPoint" />
            <mxPoint x="470" y="257" as="sourcePoint" />
          </mxGeometry>
        </mxCell>
        <mxCell id="BqO1Ia-eZH7qR0FFFj6U-3" value="Server Restaurant-reservation" style="shape=umlLifeline;perimeter=lifelinePerimeter;container=1;collapsible=0;recursiveResize=0;rounded=0;shadow=0;strokeWidth=1;" vertex="1" parent="1">
          <mxGeometry x="595" y="60" width="180" height="450" as="geometry" />
        </mxCell>
        <mxCell id="BqO1Ia-eZH7qR0FFFj6U-4" value="" style="points=[];perimeter=orthogonalPerimeter;rounded=0;shadow=0;strokeWidth=1;" vertex="1" parent="BqO1Ia-eZH7qR0FFFj6U-3">
          <mxGeometry x="85" y="200" width="10" height="70" as="geometry" />
        </mxCell>
        <mxCell id="BqO1Ia-eZH7qR0FFFj6U-5" value="Datos verificados" style="verticalAlign=bottom;endArrow=open;dashed=1;endSize=8;exitX=0.5;exitY=0.783;shadow=0;strokeWidth=1;exitDx=0;exitDy=0;exitPerimeter=0;entryX=1.167;entryY=0.832;entryDx=0;entryDy=0;entryPerimeter=0;" edge="1" parent="BqO1Ia-eZH7qR0FFFj6U-3" target="3nuBFxr9cyL0pnOWT2aG-6">
          <mxGeometry relative="1" as="geometry">
            <mxPoint x="-125" y="270" as="targetPoint" />
            <mxPoint x="85" y="270.00000000000006" as="sourcePoint" />
          </mxGeometry>
        </mxCell>
      </root>
    </mxGraphModel>
  </diagram>
</mxfile>
